# xmcd CD database file
#
# Track frame offsets:
#	150
#	16448
#	29413
#	44068
#	60030
#	73273
#	88125
#	101683
#	115510
#	131403
#	145858
#	166008
#
# Disc length: 2413 seconds
#
# Revision: 0
# Processed by: cddbd v1.5.1PL2 Copyright (c) Steve Scherf et al.
# Submitted via: CDex 1.51
#
DISCID=9d096b0c
DTITLE=Various Artist - The Sound Of Big Band Vol. 2
DYEAR=1993
DGENRE=Jazz
TTITLE0=Glenn Miller - In the mood
TTITLE1=Harry James - Don't be that way
TTITLE2=Artie Shaw - Beguin the beguine
TTITLE3=Benny Goodman - Goodbye
TTITLE4=Duke Ellington - Take the A train
TTITLE5=Woody Herman - Four brothers
TTITLE6=Tommy Dorsey - Opus one
TTITLE7=Duke Elligton - Mood indigo
TTITLE8=Glenn Miller - Sunrise serenade
TTITLE9=Count Basie - The trot
TTITLE10=Tommy Dorsey - I'm getting sentimental over you
TTITLE11=Glenn Miller - American patrol
EXTD=YEAR: 1993
EXTT0=
EXTT1=
EXTT2=
EXTT3=
EXTT4=
EXTT5=
EXTT6=
EXTT7=
EXTT8=
EXTT9=
EXTT10=
EXTT11=
PLAYORDER=
